<?xml version="1.0" encoding="UTF-8" standalone="no"?>
<!-- Created with Inkscape (http://www.inkscape.org/) -->

<svg
   xmlns:dc="http://purl.org/dc/elements/1.1/"
   xmlns:cc="http://creativecommons.org/ns#"
   xmlns:rdf="http://www.w3.org/1999/02/22-rdf-syntax-ns#"
   xmlns:svg="http://www.w3.org/2000/svg"
   xmlns="http://www.w3.org/2000/svg"
   xmlns:sodipodi="http://sodipodi.sourceforge.net/DTD/sodipodi-0.dtd"
   xmlns:inkscape="http://www.inkscape.org/namespaces/inkscape"
   width="210mm"
   height="297mm"
   id="svg2"
   version="1.1"
   inkscape:version="0.48.4 r9939"
   sodipodi:docname="ic-socket.svg">
  <defs
     id="defs4">
    <marker
       inkscape:stockid="Arrow2Mend"
       orient="auto"
       refY="0.0"
       refX="0.0"
       id="Arrow2Mend"
       style="overflow:visible;">
      <path
         id="path4268"
         style="fill-rule:evenodd;stroke-width:0.62500000;stroke-linejoin:round;"
         d="M 8.7185878,4.0337352 L -2.2072895,0.016013256 L 8.7185884,-4.0017078 C 6.9730900,-1.6296469 6.9831476,1.6157441 8.7185878,4.0337352 z "
         transform="scale(0.6) rotate(180) translate(0,0)" />
    </marker>
    <marker
       inkscape:stockid="Arrow1Send"
       orient="auto"
       refY="0.0"
       refX="0.0"
       id="Arrow1Send"
       style="overflow:visible;">
      <path
         id="path4256"
         d="M 0.0,0.0 L 5.0,-5.0 L -12.5,0.0 L 5.0,5.0 L 0.0,0.0 z "
         style="fill-rule:evenodd;stroke:#000000;stroke-width:1.0pt;"
         transform="scale(0.2) rotate(180) translate(6,0)" />
    </marker>
    <marker
       inkscape:stockid="Arrow1Mend"
       orient="auto"
       refY="0.0"
       refX="0.0"
       id="Arrow1Mend"
       style="overflow:visible;">
      <path
         id="path4250"
         d="M 0.0,0.0 L 5.0,-5.0 L -12.5,0.0 L 5.0,5.0 L 0.0,0.0 z "
         style="fill-rule:evenodd;stroke:#000000;stroke-width:1.0pt;"
         transform="scale(0.4) rotate(180) translate(10,0)" />
    </marker>
    <marker
       inkscape:stockid="Arrow1Lend"
       orient="auto"
       refY="0.0"
       refX="0.0"
       id="Arrow1Lend"
       style="overflow:visible;">
      <path
         id="path4244"
         d="M 0.0,0.0 L 5.0,-5.0 L -12.5,0.0 L 5.0,5.0 L 0.0,0.0 z "
         style="fill-rule:evenodd;stroke:#000000;stroke-width:1.0pt;"
         transform="scale(0.8) rotate(180) translate(12.5,0)" />
    </marker>
  </defs>
  <sodipodi:namedview
     id="base"
     pagecolor="#ffffff"
     bordercolor="#666666"
     borderopacity="1.0"
     inkscape:pageopacity="0.0"
     inkscape:pageshadow="2"
     inkscape:zoom="1.4"
     inkscape:cx="431.82534"
     inkscape:cy="592.76094"
     inkscape:document-units="px"
     inkscape:current-layer="layer1"
     showgrid="true"
     inkscape:snap-bbox="true"
     inkscape:snap-center="true"
     inkscape:snap-object-midpoints="true"
     inkscape:window-width="1598"
     inkscape:window-height="879"
     inkscape:window-x="0"
     inkscape:window-y="19"
     inkscape:window-maximized="1">
    <inkscape:grid
       type="xygrid"
       id="grid2993"
       empspacing="5"
       visible="true"
       enabled="true"
       snapvisiblegridlinesonly="true"
       units="mm"
       spacingx="1mm"
       spacingy="1mm" />
  </sodipodi:namedview>
  <metadata
     id="metadata7">
    <rdf:RDF>
      <cc:Work
         rdf:about="">
        <dc:format>image/svg+xml</dc:format>
        <dc:type
           rdf:resource="http://purl.org/dc/dcmitype/StillImage" />
        <dc:title></dc:title>
      </cc:Work>
    </rdf:RDF>
  </metadata>
  <g
     inkscape:label="Ebene 1"
     inkscape:groupmode="layer"
     id="layer1">
    <path
       sodipodi:type="arc"
       style="fill:none;stroke:#000000;stroke-width:1;stroke-linecap:round;stroke-linejoin:round;stroke-miterlimit:4;stroke-opacity:1;stroke-dasharray:none;stroke-dashoffset:0"
       id="path2995"
       sodipodi:cx="389.76379"
       sodipodi:cy="432.28345"
       sodipodi:rx="7.0866141"
       sodipodi:ry="7.0866141"
       d="m 396.85041,432.28345 a 7.0866141,7.0866141 0 1 1 -14.17323,0 7.0866141,7.0866141 0 1 1 14.17323,0 z"
       transform="translate(-1.4417753e-5,-4.8059178e-6)" />
    <path
       transform="translate(-1.4417753e-5,17.716531)"
       sodipodi:type="arc"
       style="fill:none;stroke:#000000;stroke-width:1;stroke-linecap:round;stroke-linejoin:round;stroke-miterlimit:4;stroke-opacity:1;stroke-dasharray:none;stroke-dashoffset:0"
       id="path2995-1"
       sodipodi:cx="389.76379"
       sodipodi:cy="432.28345"
       sodipodi:rx="7.0866141"
       sodipodi:ry="7.0866141"
       d="m 396.85041,432.28345 a 7.0866141,7.0866141 0 1 1 -14.17323,0 7.0866141,7.0866141 0 1 1 14.17323,0 z" />
    <path
       transform="translate(-1.4417753e-5,35.433066)"
       sodipodi:type="arc"
       style="fill:none;stroke:#000000;stroke-width:1;stroke-linecap:round;stroke-linejoin:round;stroke-miterlimit:4;stroke-opacity:1;stroke-dasharray:none;stroke-dashoffset:0"
       id="path2995-5"
       sodipodi:cx="389.76379"
       sodipodi:cy="432.28345"
       sodipodi:rx="7.0866141"
       sodipodi:ry="7.0866141"
       d="m 396.85041,432.28345 a 7.0866141,7.0866141 0 1 1 -14.17323,0 7.0866141,7.0866141 0 1 1 14.17323,0 z" />
    <path
       transform="translate(-1.4417753e-5,53.149601)"
       sodipodi:type="arc"
       style="fill:none;stroke:#000000;stroke-width:1;stroke-linecap:round;stroke-linejoin:round;stroke-miterlimit:4;stroke-opacity:1;stroke-dasharray:none;stroke-dashoffset:0"
       id="path2995-2"
       sodipodi:cx="389.76379"
       sodipodi:cy="432.28345"
       sodipodi:rx="7.0866141"
       sodipodi:ry="7.0866141"
       d="m 396.85041,432.28345 a 7.0866141,7.0866141 0 1 1 -14.17323,0 7.0866141,7.0866141 0 1 1 14.17323,0 z" />
    <path
       transform="translate(-1.4417753e-5,70.866137)"
       sodipodi:type="arc"
       style="fill:none;stroke:#000000;stroke-width:1;stroke-linecap:round;stroke-linejoin:round;stroke-miterlimit:4;stroke-opacity:1;stroke-dasharray:none;stroke-dashoffset:0"
       id="path2995-8"
       sodipodi:cx="389.76379"
       sodipodi:cy="432.28345"
       sodipodi:rx="7.0866141"
       sodipodi:ry="7.0866141"
       d="m 396.85041,432.28345 a 7.0866141,7.0866141 0 1 1 -14.17323,0 7.0866141,7.0866141 0 1 1 14.17323,0 z" />
    <path
       transform="translate(-1.4417753e-5,88.582672)"
       sodipodi:type="arc"
       style="fill:none;stroke:#000000;stroke-width:1;stroke-linecap:round;stroke-linejoin:round;stroke-miterlimit:4;stroke-opacity:1;stroke-dasharray:none;stroke-dashoffset:0"
       id="path2995-6"
       sodipodi:cx="389.76379"
       sodipodi:cy="432.28345"
       sodipodi:rx="7.0866141"
       sodipodi:ry="7.0866141"
       d="m 396.85041,432.28345 a 7.0866141,7.0866141 0 1 1 -14.17323,0 7.0866141,7.0866141 0 1 1 14.17323,0 z" />
    <path
       transform="translate(-1.4417753e-5,106.29921)"
       sodipodi:type="arc"
       style="fill:none;stroke:#000000;stroke-width:1;stroke-linecap:round;stroke-linejoin:round;stroke-miterlimit:4;stroke-opacity:1;stroke-dasharray:none;stroke-dashoffset:0"
       id="path2995-3"
       sodipodi:cx="389.76379"
       sodipodi:cy="432.28345"
       sodipodi:rx="7.0866141"
       sodipodi:ry="7.0866141"
       d="m 396.85041,432.28345 a 7.0866141,7.0866141 0 1 1 -14.17323,0 7.0866141,7.0866141 0 1 1 14.17323,0 z" />
    <path
       transform="translate(-1.4417753e-5,124.01574)"
       sodipodi:type="arc"
       style="fill:none;stroke:#000000;stroke-width:1;stroke-linecap:round;stroke-linejoin:round;stroke-miterlimit:4;stroke-opacity:1;stroke-dasharray:none;stroke-dashoffset:0"
       id="path2995-21"
       sodipodi:cx="389.76379"
       sodipodi:cy="432.28345"
       sodipodi:rx="7.0866141"
       sodipodi:ry="7.0866141"
       d="m 396.85041,432.28345 a 7.0866141,7.0866141 0 1 1 -14.17323,0 7.0866141,7.0866141 0 1 1 14.17323,0 z" />
    <path
       transform="translate(-1.4417753e-5,-17.71654)"
       sodipodi:type="arc"
       style="fill:none;stroke:#000000;stroke-width:1;stroke-linecap:round;stroke-linejoin:round;stroke-miterlimit:4;stroke-opacity:1;stroke-dasharray:none;stroke-dashoffset:0"
       id="path2995-39"
       sodipodi:cx="389.76379"
       sodipodi:cy="432.28345"
       sodipodi:rx="7.0866141"
       sodipodi:ry="7.0866141"
       d="m 396.85041,432.28345 a 7.0866141,7.0866141 0 1 1 -14.17323,0 7.0866141,7.0866141 0 1 1 14.17323,0 z" />
    <path
       sodipodi:type="arc"
       style="fill:none;stroke:#000000;stroke-width:1;stroke-linecap:round;stroke-linejoin:round;stroke-miterlimit:4;stroke-opacity:1;stroke-dasharray:none;stroke-dashoffset:0"
       id="path2995-83"
       sodipodi:cx="389.76379"
       sodipodi:cy="432.28345"
       sodipodi:rx="7.0866141"
       sodipodi:ry="7.0866141"
       d="m 396.85041,432.28345 a 7.0866141,7.0866141 0 1 1 -14.17323,0 7.0866141,7.0866141 0 1 1 14.17323,0 z"
       transform="translate(53.149592,-1.158034e-5)" />
    <path
       transform="translate(53.149592,17.716529)"
       sodipodi:type="arc"
       style="fill:none;stroke:#000000;stroke-width:1;stroke-linecap:round;stroke-linejoin:round;stroke-miterlimit:4;stroke-opacity:1;stroke-dasharray:none;stroke-dashoffset:0"
       id="path2995-1-4"
       sodipodi:cx="389.76379"
       sodipodi:cy="432.28345"
       sodipodi:rx="7.0866141"
       sodipodi:ry="7.0866141"
       d="m 396.85041,432.28345 a 7.0866141,7.0866141 0 1 1 -14.17323,0 7.0866141,7.0866141 0 1 1 14.17323,0 z" />
    <path
       transform="translate(53.149592,35.433059)"
       sodipodi:type="arc"
       style="fill:none;stroke:#000000;stroke-width:1;stroke-linecap:round;stroke-linejoin:round;stroke-miterlimit:4;stroke-opacity:1;stroke-dasharray:none;stroke-dashoffset:0"
       id="path2995-5-1"
       sodipodi:cx="389.76379"
       sodipodi:cy="432.28345"
       sodipodi:rx="7.0866141"
       sodipodi:ry="7.0866141"
       d="m 396.85041,432.28345 a 7.0866141,7.0866141 0 1 1 -14.17323,0 7.0866141,7.0866141 0 1 1 14.17323,0 z" />
    <path
       transform="translate(53.149592,53.149599)"
       sodipodi:type="arc"
       style="fill:none;stroke:#000000;stroke-width:1;stroke-linecap:round;stroke-linejoin:round;stroke-miterlimit:4;stroke-opacity:1;stroke-dasharray:none;stroke-dashoffset:0"
       id="path2995-2-7"
       sodipodi:cx="389.76379"
       sodipodi:cy="432.28345"
       sodipodi:rx="7.0866141"
       sodipodi:ry="7.0866141"
       d="m 396.85041,432.28345 a 7.0866141,7.0866141 0 1 1 -14.17323,0 7.0866141,7.0866141 0 1 1 14.17323,0 z" />
    <path
       transform="translate(53.149592,70.866129)"
       sodipodi:type="arc"
       style="fill:none;stroke:#000000;stroke-width:1;stroke-linecap:round;stroke-linejoin:round;stroke-miterlimit:4;stroke-opacity:1;stroke-dasharray:none;stroke-dashoffset:0"
       id="path2995-8-5"
       sodipodi:cx="389.76379"
       sodipodi:cy="432.28345"
       sodipodi:rx="7.0866141"
       sodipodi:ry="7.0866141"
       d="m 396.85041,432.28345 a 7.0866141,7.0866141 0 1 1 -14.17323,0 7.0866141,7.0866141 0 1 1 14.17323,0 z" />
    <path
       transform="translate(53.149592,88.582669)"
       sodipodi:type="arc"
       style="fill:none;stroke:#000000;stroke-width:1;stroke-linecap:round;stroke-linejoin:round;stroke-miterlimit:4;stroke-opacity:1;stroke-dasharray:none;stroke-dashoffset:0"
       id="path2995-6-1"
       sodipodi:cx="389.76379"
       sodipodi:cy="432.28345"
       sodipodi:rx="7.0866141"
       sodipodi:ry="7.0866141"
       d="m 396.85041,432.28345 a 7.0866141,7.0866141 0 1 1 -14.17323,0 7.0866141,7.0866141 0 1 1 14.17323,0 z" />
    <path
       transform="translate(53.149592,106.29921)"
       sodipodi:type="arc"
       style="fill:none;stroke:#000000;stroke-width:1;stroke-linecap:round;stroke-linejoin:round;stroke-miterlimit:4;stroke-opacity:1;stroke-dasharray:none;stroke-dashoffset:0"
       id="path2995-3-0"
       sodipodi:cx="389.76379"
       sodipodi:cy="432.28345"
       sodipodi:rx="7.0866141"
       sodipodi:ry="7.0866141"
       d="m 396.85041,432.28345 a 7.0866141,7.0866141 0 1 1 -14.17323,0 7.0866141,7.0866141 0 1 1 14.17323,0 z" />
    <path
       transform="translate(53.149592,124.01574)"
       sodipodi:type="arc"
       style="fill:none;stroke:#000000;stroke-width:1;stroke-linecap:round;stroke-linejoin:round;stroke-miterlimit:4;stroke-opacity:1;stroke-dasharray:none;stroke-dashoffset:0"
       id="path2995-21-4"
       sodipodi:cx="389.76379"
       sodipodi:cy="432.28345"
       sodipodi:rx="7.0866141"
       sodipodi:ry="7.0866141"
       d="m 396.85041,432.28345 a 7.0866141,7.0866141 0 1 1 -14.17323,0 7.0866141,7.0866141 0 1 1 14.17323,0 z" />
    <path
       transform="translate(53.149592,-17.716541)"
       sodipodi:type="arc"
       style="fill:none;stroke:#000000;stroke-width:1;stroke-linecap:round;stroke-linejoin:round;stroke-miterlimit:4;stroke-opacity:1;stroke-dasharray:none;stroke-dashoffset:0"
       id="path2995-39-1"
       sodipodi:cx="389.76379"
       sodipodi:cy="432.28345"
       sodipodi:rx="7.0866141"
       sodipodi:ry="7.0866141"
       d="m 396.85041,432.28345 a 7.0866141,7.0866141 0 1 1 -14.17323,0 7.0866141,7.0866141 0 1 1 14.17323,0 z" />
    <path
       sodipodi:type="arc"
       style="fill:none;stroke:#000000;stroke-width:1.27178526;stroke-linecap:round;stroke-linejoin:round;stroke-miterlimit:4;stroke-opacity:1;stroke-dasharray:none;stroke-dashoffset:0"
       id="path3994"
       sodipodi:cx="421.65353"
       sodipodi:cy="407.48029"
       sodipodi:rx="10.629921"
       sodipodi:ry="10.629921"
       d="m 432.28345,407.48029 a 10.629921,10.629921 0 1 1 -21.25984,0"
       sodipodi:start="0"
       sodipodi:end="3.1415927"
       sodipodi:open="true"
       transform="matrix(0.78629631,0,0,0.78629629,84.793965,80.493442)" />
    <path
       style="fill:none;stroke:#000000;stroke-width:1px;stroke-linecap:butt;stroke-linejoin:miter;stroke-opacity:1"
       d="m 408.3593,400.39368 -28.72544,0 0,170.07874 73.40945,0 0,-170.07874 -28.72543,0"
       id="path3996"
       inkscape:connector-curvature="0" />
    <rect
       style="fill:none;stroke:#000000;stroke-width:1;stroke-linecap:round;stroke-linejoin:round;stroke-miterlimit:4;stroke-opacity:1;stroke-dasharray:none;stroke-dashoffset:0"
       id="rect3998"
       width="23.803146"
       height="56.692913"
       x="404.43701"
       y="493.01965" />
    <rect
       style="fill:none;stroke:#000000;stroke-width:1;stroke-linecap:round;stroke-linejoin:round;stroke-miterlimit:4;stroke-opacity:1;stroke-dasharray:none;stroke-dashoffset:0"
       id="rect3998-8"
       width="23.803146"
       height="56.692913"
       x="404.43701"
       y="422.15353" />
    <rect
       style="fill:none;stroke:#000000;stroke-width:1;stroke-linecap:round;stroke-linejoin:round;stroke-miterlimit:4;stroke-opacity:1;stroke-dasharray:none;stroke-dashoffset:0"
       id="rect4018"
       width="24.303144"
       height="170.07874"
       x="379.63385"
       y="400.39368" />
    <rect
       style="fill:none;stroke:#000000;stroke-width:0.99999958;stroke-linecap:round;stroke-linejoin:round;stroke-miterlimit:4;stroke-opacity:1;stroke-dasharray:none;stroke-dashoffset:0"
       id="rect4020"
       width="24.303471"
       height="170.07874"
       x="428.73984"
       y="400.39368" />
    <path
       sodipodi:type="arc"
       style="fill:none;stroke:#000000;stroke-width:1;stroke-linecap:round;stroke-linejoin:round;stroke-miterlimit:4;stroke-opacity:1;stroke-dasharray:none;stroke-dashoffset:0"
       id="path4022"
       sodipodi:cx="389.76379"
       sodipodi:cy="414.56689"
       sodipodi:rx="3.5433071"
       sodipodi:ry="3.5433071"
       d="m 393.3071,414.56689 a 3.5433071,3.5433071 0 1 1 -7.08661,0 3.5433071,3.5433071 0 1 1 7.08661,0 z" />
    <path
       transform="translate(3.1206512e-6,17.716531)"
       sodipodi:type="arc"
       style="fill:none;stroke:#000000;stroke-width:1;stroke-linecap:round;stroke-linejoin:round;stroke-miterlimit:4;stroke-opacity:1;stroke-dasharray:none;stroke-dashoffset:0"
       id="path4022-9"
       sodipodi:cx="389.76379"
       sodipodi:cy="414.56689"
       sodipodi:rx="3.5433071"
       sodipodi:ry="3.5433071"
       d="m 393.3071,414.56689 a 3.5433071,3.5433071 0 1 1 -7.08661,0 3.5433071,3.5433071 0 1 1 7.08661,0 z" />
    <path
       transform="translate(3.1206512e-6,35.433066)"
       sodipodi:type="arc"
       style="fill:none;stroke:#000000;stroke-width:1;stroke-linecap:round;stroke-linejoin:round;stroke-miterlimit:4;stroke-opacity:1;stroke-dasharray:none;stroke-dashoffset:0"
       id="path4022-3"
       sodipodi:cx="389.76379"
       sodipodi:cy="414.56689"
       sodipodi:rx="3.5433071"
       sodipodi:ry="3.5433071"
       d="m 393.3071,414.56689 a 3.5433071,3.5433071 0 1 1 -7.08661,0 3.5433071,3.5433071 0 1 1 7.08661,0 z" />
    <path
       transform="translate(3.1206512e-6,53.149601)"
       sodipodi:type="arc"
       style="fill:none;stroke:#000000;stroke-width:1;stroke-linecap:round;stroke-linejoin:round;stroke-miterlimit:4;stroke-opacity:1;stroke-dasharray:none;stroke-dashoffset:0"
       id="path4022-7"
       sodipodi:cx="389.76379"
       sodipodi:cy="414.56689"
       sodipodi:rx="3.5433071"
       sodipodi:ry="3.5433071"
       d="m 393.3071,414.56689 a 3.5433071,3.5433071 0 1 1 -7.08661,0 3.5433071,3.5433071 0 1 1 7.08661,0 z" />
    <path
       transform="translate(3.1206512e-6,70.866137)"
       sodipodi:type="arc"
       style="fill:none;stroke:#000000;stroke-width:1;stroke-linecap:round;stroke-linejoin:round;stroke-miterlimit:4;stroke-opacity:1;stroke-dasharray:none;stroke-dashoffset:0"
       id="path4022-5"
       sodipodi:cx="389.76379"
       sodipodi:cy="414.56689"
       sodipodi:rx="3.5433071"
       sodipodi:ry="3.5433071"
       d="m 393.3071,414.56689 a 3.5433071,3.5433071 0 1 1 -7.08661,0 3.5433071,3.5433071 0 1 1 7.08661,0 z" />
    <path
       transform="translate(3.1206512e-6,88.582672)"
       sodipodi:type="arc"
       style="fill:none;stroke:#000000;stroke-width:1;stroke-linecap:round;stroke-linejoin:round;stroke-miterlimit:4;stroke-opacity:1;stroke-dasharray:none;stroke-dashoffset:0"
       id="path4022-0"
       sodipodi:cx="389.76379"
       sodipodi:cy="414.56689"
       sodipodi:rx="3.5433071"
       sodipodi:ry="3.5433071"
       d="m 393.3071,414.56689 a 3.5433071,3.5433071 0 1 1 -7.08661,0 3.5433071,3.5433071 0 1 1 7.08661,0 z" />
    <path
       transform="translate(3.1206512e-6,106.29921)"
       sodipodi:type="arc"
       style="fill:none;stroke:#000000;stroke-width:1;stroke-linecap:round;stroke-linejoin:round;stroke-miterlimit:4;stroke-opacity:1;stroke-dasharray:none;stroke-dashoffset:0"
       id="path4022-2"
       sodipodi:cx="389.76379"
       sodipodi:cy="414.56689"
       sodipodi:rx="3.5433071"
       sodipodi:ry="3.5433071"
       d="m 393.3071,414.56689 a 3.5433071,3.5433071 0 1 1 -7.08661,0 3.5433071,3.5433071 0 1 1 7.08661,0 z" />
    <path
       transform="translate(3.1206512e-6,124.01574)"
       sodipodi:type="arc"
       style="fill:none;stroke:#000000;stroke-width:1;stroke-linecap:round;stroke-linejoin:round;stroke-miterlimit:4;stroke-opacity:1;stroke-dasharray:none;stroke-dashoffset:0"
       id="path4022-02"
       sodipodi:cx="389.76379"
       sodipodi:cy="414.56689"
       sodipodi:rx="3.5433071"
       sodipodi:ry="3.5433071"
       d="m 393.3071,414.56689 a 3.5433071,3.5433071 0 1 1 -7.08661,0 3.5433071,3.5433071 0 1 1 7.08661,0 z" />
    <path
       transform="translate(3.1206512e-6,141.73228)"
       sodipodi:type="arc"
       style="fill:none;stroke:#000000;stroke-width:1;stroke-linecap:round;stroke-linejoin:round;stroke-miterlimit:4;stroke-opacity:1;stroke-dasharray:none;stroke-dashoffset:0"
       id="path4022-1"
       sodipodi:cx="389.76379"
       sodipodi:cy="414.56689"
       sodipodi:rx="3.5433071"
       sodipodi:ry="3.5433071"
       d="m 393.3071,414.56689 a 3.5433071,3.5433071 0 1 1 -7.08661,0 3.5433071,3.5433071 0 1 1 7.08661,0 z" />
    <path
       transform="translate(53.149609,-4.8480988e-6)"
       sodipodi:type="arc"
       style="fill:none;stroke:#000000;stroke-width:1;stroke-linecap:round;stroke-linejoin:round;stroke-miterlimit:4;stroke-opacity:1;stroke-dasharray:none;stroke-dashoffset:0"
       id="path4022-98"
       sodipodi:cx="389.76379"
       sodipodi:cy="414.56689"
       sodipodi:rx="3.5433071"
       sodipodi:ry="3.5433071"
       d="m 393.3071,414.56689 a 3.5433071,3.5433071 0 1 1 -7.08661,0 3.5433071,3.5433071 0 1 1 7.08661,0 z" />
    <path
       transform="translate(53.149609,17.716531)"
       sodipodi:type="arc"
       style="fill:none;stroke:#000000;stroke-width:1;stroke-linecap:round;stroke-linejoin:round;stroke-miterlimit:4;stroke-opacity:1;stroke-dasharray:none;stroke-dashoffset:0"
       id="path4022-25"
       sodipodi:cx="389.76379"
       sodipodi:cy="414.56689"
       sodipodi:rx="3.5433071"
       sodipodi:ry="3.5433071"
       d="m 393.3071,414.56689 a 3.5433071,3.5433071 0 1 1 -7.08661,0 3.5433071,3.5433071 0 1 1 7.08661,0 z" />
    <path
       transform="translate(53.149609,35.433066)"
       sodipodi:type="arc"
       style="fill:none;stroke:#000000;stroke-width:1;stroke-linecap:round;stroke-linejoin:round;stroke-miterlimit:4;stroke-opacity:1;stroke-dasharray:none;stroke-dashoffset:0"
       id="path4022-52"
       sodipodi:cx="389.76379"
       sodipodi:cy="414.56689"
       sodipodi:rx="3.5433071"
       sodipodi:ry="3.5433071"
       d="m 393.3071,414.56689 a 3.5433071,3.5433071 0 1 1 -7.08661,0 3.5433071,3.5433071 0 1 1 7.08661,0 z" />
    <path
       transform="translate(53.149609,53.149601)"
       sodipodi:type="arc"
       style="fill:none;stroke:#000000;stroke-width:1;stroke-linecap:round;stroke-linejoin:round;stroke-miterlimit:4;stroke-opacity:1;stroke-dasharray:none;stroke-dashoffset:0"
       id="path4022-33"
       sodipodi:cx="389.76379"
       sodipodi:cy="414.56689"
       sodipodi:rx="3.5433071"
       sodipodi:ry="3.5433071"
       d="m 393.3071,414.56689 a 3.5433071,3.5433071 0 1 1 -7.08661,0 3.5433071,3.5433071 0 1 1 7.08661,0 z" />
    <path
       transform="translate(53.149609,70.866137)"
       sodipodi:type="arc"
       style="fill:none;stroke:#000000;stroke-width:1;stroke-linecap:round;stroke-linejoin:round;stroke-miterlimit:4;stroke-opacity:1;stroke-dasharray:none;stroke-dashoffset:0"
       id="path4022-96"
       sodipodi:cx="389.76379"
       sodipodi:cy="414.56689"
       sodipodi:rx="3.5433071"
       sodipodi:ry="3.5433071"
       d="m 393.3071,414.56689 a 3.5433071,3.5433071 0 1 1 -7.08661,0 3.5433071,3.5433071 0 1 1 7.08661,0 z" />
    <path
       transform="translate(53.149609,88.582672)"
       sodipodi:type="arc"
       style="fill:none;stroke:#000000;stroke-width:1;stroke-linecap:round;stroke-linejoin:round;stroke-miterlimit:4;stroke-opacity:1;stroke-dasharray:none;stroke-dashoffset:0"
       id="path4022-14"
       sodipodi:cx="389.76379"
       sodipodi:cy="414.56689"
       sodipodi:rx="3.5433071"
       sodipodi:ry="3.5433071"
       d="m 393.3071,414.56689 a 3.5433071,3.5433071 0 1 1 -7.08661,0 3.5433071,3.5433071 0 1 1 7.08661,0 z" />
    <path
       transform="translate(53.149609,106.29921)"
       sodipodi:type="arc"
       style="fill:none;stroke:#000000;stroke-width:1;stroke-linecap:round;stroke-linejoin:round;stroke-miterlimit:4;stroke-opacity:1;stroke-dasharray:none;stroke-dashoffset:0"
       id="path4022-12"
       sodipodi:cx="389.76379"
       sodipodi:cy="414.56689"
       sodipodi:rx="3.5433071"
       sodipodi:ry="3.5433071"
       d="m 393.3071,414.56689 a 3.5433071,3.5433071 0 1 1 -7.08661,0 3.5433071,3.5433071 0 1 1 7.08661,0 z" />
    <path
       transform="translate(53.149609,124.01574)"
       sodipodi:type="arc"
       style="fill:none;stroke:#000000;stroke-width:1;stroke-linecap:round;stroke-linejoin:round;stroke-miterlimit:4;stroke-opacity:1;stroke-dasharray:none;stroke-dashoffset:0"
       id="path4022-18"
       sodipodi:cx="389.76379"
       sodipodi:cy="414.56689"
       sodipodi:rx="3.5433071"
       sodipodi:ry="3.5433071"
       d="m 393.3071,414.56689 a 3.5433071,3.5433071 0 1 1 -7.08661,0 3.5433071,3.5433071 0 1 1 7.08661,0 z" />
    <path
       transform="translate(53.149609,141.73228)"
       sodipodi:type="arc"
       style="fill:none;stroke:#000000;stroke-width:1;stroke-linecap:round;stroke-linejoin:round;stroke-miterlimit:4;stroke-opacity:1;stroke-dasharray:none;stroke-dashoffset:0"
       id="path4022-6"
       sodipodi:cx="389.76379"
       sodipodi:cy="414.56689"
       sodipodi:rx="3.5433071"
       sodipodi:ry="3.5433071"
       d="m 393.3071,414.56689 a 3.5433071,3.5433071 0 1 1 -7.08661,0 3.5433071,3.5433071 0 1 1 7.08661,0 z" />
    <text
       xml:space="preserve"
       style="font-size:20px;font-style:normal;font-variant:normal;font-weight:500;font-stretch:normal;text-align:center;line-height:125%;letter-spacing:0px;word-spacing:0px;text-anchor:middle;fill:#000000;fill-opacity:1;stroke:none;font-family:Century Schoolbook L;-inkscape-font-specification:Century Schoolbook L Medium"
       x="365.02243"
       y="420.87961"
       id="text4173"
       sodipodi:linespacing="125%"><tspan
         sodipodi:role="line"
         id="tspan4175"
         x="365.02243"
         y="420.87961"
         style="font-size:14px">1</tspan><tspan
         sodipodi:role="line"
         x="365.02243"
         y="438.37961"
         id="tspan4177"
         style="font-size:14px">2</tspan><tspan
         sodipodi:role="line"
         x="365.02243"
         y="455.87961"
         id="tspan4179"
         style="font-size:14px">3</tspan><tspan
         sodipodi:role="line"
         x="365.02243"
         y="473.37961"
         id="tspan4181"
         style="font-size:14px">4</tspan><tspan
         sodipodi:role="line"
         x="365.02243"
         y="490.87961"
         id="tspan4183"
         style="font-size:14px">5</tspan><tspan
         sodipodi:role="line"
         x="365.02243"
         y="508.37961"
         id="tspan4185"
         style="font-size:14px">6</tspan><tspan
         sodipodi:role="line"
         x="365.02243"
         y="525.87958"
         id="tspan4187"
         style="font-size:14px">7</tspan><tspan
         sodipodi:role="line"
         x="365.02243"
         y="543.37958"
         id="tspan4189"
         style="font-size:14px">8</tspan><tspan
         sodipodi:role="line"
         x="365.02243"
         y="560.87958"
         id="tspan4215"
         style="font-size:14px">9</tspan><tspan
         sodipodi:role="line"
         x="365.02243"
         y="578.37958"
         id="tspan4191" /></text>
    <text
       xml:space="preserve"
       style="font-size:20px;font-style:normal;font-variant:normal;font-weight:500;font-stretch:normal;text-align:center;line-height:125%;letter-spacing:0px;word-spacing:0px;text-anchor:middle;fill:#000000;fill-opacity:1;stroke:none;font-family:Century Schoolbook L;-inkscape-font-specification:Century Schoolbook L Medium"
       x="467.42514"
       y="420.87961"
       id="text4193"
       sodipodi:linespacing="125%"><tspan
         sodipodi:role="line"
         id="tspan4195"
         x="467.42514"
         y="420.87961"
         style="font-size:14px">18</tspan><tspan
         sodipodi:role="line"
         x="467.42514"
         y="438.37961"
         id="tspan4197"
         style="font-size:14px">17</tspan><tspan
         sodipodi:role="line"
         x="467.42514"
         y="455.87961"
         id="tspan4199"
         style="font-size:14px">16</tspan><tspan
         sodipodi:role="line"
         x="467.42514"
         y="473.37961"
         id="tspan4201"
         style="font-size:14px">15</tspan><tspan
         sodipodi:role="line"
         x="467.42514"
         y="490.87961"
         id="tspan4203"
         style="font-size:14px">14</tspan><tspan
         sodipodi:role="line"
         x="467.42514"
         y="508.37961"
         id="tspan4205"
         style="font-size:14px">13</tspan><tspan
         sodipodi:role="line"
         x="467.42514"
         y="525.87964"
         id="tspan4207"
         style="font-size:14px">12</tspan><tspan
         sodipodi:role="line"
         x="467.42514"
         y="543.37964"
         id="tspan4209"
         style="font-size:14px">11</tspan><tspan
         sodipodi:role="line"
         x="467.42514"
         y="560.87964"
         id="tspan4211"
         style="font-size:14px">10</tspan><tspan
         sodipodi:role="line"
         x="467.42514"
         y="578.37964"
         id="tspan4213" /></text>
    <path
       style="fill:none;stroke:#000000;stroke-width:3.54330708999999988;stroke-linecap:butt;stroke-linejoin:miter;stroke-opacity:1;stroke-miterlimit:4;stroke-dasharray:none;marker-end:url(#Arrow2Mend)"
       d="m 275.87795,484.93305 70.86614,0"
       id="path4217"
       inkscape:connector-curvature="0" />
    <path
       style="fill:none;stroke:#000000;stroke-width:3.54330707;stroke-linecap:butt;stroke-linejoin:miter;stroke-miterlimit:4;stroke-opacity:1;stroke-dasharray:none;marker-end:url(#Arrow2Mend)"
       d="m 559.72022,484.86496 -70.86614,0"
       id="path4217-2"
       inkscape:connector-curvature="0" />
  </g>
</svg>
